<svg width="7" height="10" viewBox="0 0 7 10" fill="none" xmlns="http://www.w3.org/2000/svg">
<path d="M5.8739 4.17446C5.8667 4.16884 5.8571 4.16659 5.8499 4.16096L1.22137 0.23386C0.960962 0.0144997 0.538549 0.0144997 0.278142 0.23386C0.275742 0.23611 0.274542 0.238359 0.273342 0.240609C0.210286 0.289414 0.159361 0.350538 0.124124 0.41971C0.0888869 0.488882 0.0701888 0.564432 0.0693359 0.641082L0.0693359 8.49642C0.0706814 8.57447 0.0902942 8.6513 0.126789 8.72147C0.163284 8.79164 0.215771 8.85344 0.280542 8.90251L0.278142 8.90476C0.409168 9.01092 0.576571 9.06934 0.749755 9.06934C0.92294 9.06934 1.09034 9.01092 1.22137 8.90476L5.8739 4.96866C5.93518 4.91966 5.98438 4.85878 6.01812 4.79022C6.05186 4.72166 6.06934 4.64706 6.06934 4.57156C6.06934 4.49606 6.05186 4.42146 6.01812 4.3529C5.98438 4.28434 5.93518 4.22347 5.8739 4.17446Z" fill="black"/>
</svg>
