<svg width="8" height="5" viewBox="0 0 8 5" fill="none" xmlns="http://www.w3.org/2000/svg">
<path d="M4.66259 4.5367C4.66697 4.5319 4.66872 4.5255 4.67309 4.5207L7.72751 1.43501C7.89812 1.26141 7.89812 0.979801 7.72751 0.806196C7.72576 0.804596 7.72401 0.803796 7.72226 0.802996C7.6843 0.760959 7.63676 0.727009 7.58296 0.703517C7.52916 0.680026 7.4704 0.667561 7.41078 0.666992H1.30108C1.24037 0.667889 1.18061 0.680964 1.12603 0.705294C1.07146 0.729624 1.02339 0.764616 0.985222 0.807796L0.983473 0.806196C0.900905 0.893547 0.855469 1.00515 0.855469 1.12061C0.855469 1.23606 0.900905 1.34766 0.983473 1.43501L4.04489 4.5367C4.083 4.57755 4.13035 4.61036 4.18367 4.63285C4.23699 4.65534 4.29502 4.66699 4.35374 4.66699C4.41246 4.66699 4.47049 4.65534 4.52381 4.63285C4.57713 4.61036 4.62448 4.57755 4.66259 4.5367Z" fill="#335F32"/>
<path d="M4.66259 4.5367C4.66697 4.5319 4.66872 4.5255 4.67309 4.5207L7.72751 1.43501C7.89812 1.26141 7.89812 0.979801 7.72751 0.806196C7.72576 0.804596 7.72401 0.803796 7.72226 0.802996C7.6843 0.760959 7.63676 0.727009 7.58296 0.703517C7.52916 0.680026 7.4704 0.667561 7.41078 0.666992H1.30108C1.24037 0.667889 1.18061 0.680964 1.12603 0.705294C1.07146 0.729624 1.02339 0.764616 0.985222 0.807796L0.983473 0.806196C0.900905 0.893547 0.855469 1.00515 0.855469 1.12061C0.855469 1.23606 0.900905 1.34766 0.983473 1.43501L4.04489 4.5367C4.083 4.57755 4.13035 4.61036 4.18367 4.63285C4.23699 4.65534 4.29502 4.66699 4.35374 4.66699C4.41246 4.66699 4.47049 4.65534 4.52381 4.63285C4.57713 4.61036 4.62448 4.57755 4.66259 4.5367Z" fill="black" fill-opacity="0.2"/>
</svg>
