<svg width="7" height="10" viewBox="0 0 7 10" fill="none" xmlns="http://www.w3.org/2000/svg">
<path d="M0.263878 4.98859C0.271127 4.99415 0.280746 4.99631 0.287995 5.00188L4.95052 8.88856C5.21283 9.10565 5.63522 9.10197 5.89371 8.88035C5.89609 8.87808 5.89727 8.87582 5.89845 8.87356C5.96108 8.82421 6.01147 8.76265 6.04611 8.69317C6.08074 8.62369 6.09878 8.54798 6.09897 8.47133L6.03062 0.616292C6.0286 0.538251 6.00831 0.461597 5.97121 0.391746C5.93411 0.321896 5.88108 0.260552 5.81589 0.212048L5.81827 0.209777C5.68632 0.104763 5.51842 0.0478037 5.34524 0.0493105C5.17206 0.0508174 5.00518 0.110689 4.87508 0.217984L0.256968 4.19442C0.196122 4.24395 0.147449 4.30526 0.114306 4.37411C0.0811626 4.44295 0.0643397 4.51771 0.0649966 4.5932C0.0656535 4.6687 0.0837747 4.74315 0.118111 4.81141C0.152447 4.87967 0.202179 4.94012 0.263878 4.98859Z" fill="black"/>
</svg>
