<svg width="18" height="19" viewBox="0 0 18 19" fill="none" xmlns="http://www.w3.org/2000/svg">
<path fill-rule="evenodd" clip-rule="evenodd" d="M17.7472 2.04902C17.7472 1.62069 17.5968 1.20926 17.3296 0.905836C17.0618 0.60309 16.6989 0.432954 16.3206 0.432693H2.31382C1.93577 0.432693 1.57263 0.603142 1.30482 0.905836C1.0376 1.20929 0.887437 1.62037 0.887207 2.04902V12.0408C0.887207 12.4692 1.03765 12.8806 1.30482 13.184C1.57263 13.4867 1.93577 13.6572 2.31382 13.6572H16.3206C16.6986 13.6572 17.0618 13.4867 17.3296 13.184C17.5968 12.8806 17.7472 12.4692 17.7472 12.0408V2.04902ZM16.4503 2.04902V12.0408C16.4503 12.0601 16.447 12.0792 16.4404 12.097C16.4338 12.1148 16.4242 12.1309 16.412 12.1444C16.4001 12.1582 16.3859 12.1691 16.3702 12.1766C16.3545 12.184 16.3376 12.1878 16.3206 12.1878H2.31382C2.2968 12.1878 2.27995 12.184 2.26424 12.1766C2.24854 12.1691 2.23431 12.1582 2.22239 12.1444C2.21024 12.1309 2.2006 12.1148 2.19403 12.097C2.18746 12.0792 2.18409 12.0601 2.18413 12.0408V2.04902C2.18413 2.01008 2.19775 1.97261 2.22239 1.94543C2.23431 1.93166 2.24854 1.92074 2.26424 1.9133C2.27995 1.90585 2.2968 1.90204 2.31382 1.90208H16.3206C16.355 1.90208 16.388 1.91751 16.412 1.94543C16.4242 1.95894 16.4338 1.97506 16.4404 1.99285C16.447 2.01064 16.4503 2.02973 16.4503 2.04902Z" fill="#335F32"/>
<path fill-rule="evenodd" clip-rule="evenodd" d="M17.7472 2.04902C17.7472 1.62069 17.5968 1.20926 17.3296 0.905836C17.0618 0.60309 16.6989 0.432954 16.3206 0.432693H2.31382C1.93577 0.432693 1.57263 0.603142 1.30482 0.905836C1.0376 1.20929 0.887437 1.62037 0.887207 2.04902V12.0408C0.887207 12.4692 1.03765 12.8806 1.30482 13.184C1.57263 13.4867 1.93577 13.6572 2.31382 13.6572H16.3206C16.6986 13.6572 17.0618 13.4867 17.3296 13.184C17.5968 12.8806 17.7472 12.4692 17.7472 12.0408V2.04902ZM16.4503 2.04902V12.0408C16.4503 12.0601 16.447 12.0792 16.4404 12.097C16.4338 12.1148 16.4242 12.1309 16.412 12.1444C16.4001 12.1582 16.3859 12.1691 16.3702 12.1766C16.3545 12.184 16.3376 12.1878 16.3206 12.1878H2.31382C2.2968 12.1878 2.27995 12.184 2.26424 12.1766C2.24854 12.1691 2.23431 12.1582 2.22239 12.1444C2.21024 12.1309 2.2006 12.1148 2.19403 12.097C2.18746 12.0792 2.18409 12.0601 2.18413 12.0408V2.04902C2.18413 2.01008 2.19775 1.97261 2.22239 1.94543C2.23431 1.93166 2.24854 1.92074 2.26424 1.9133C2.27995 1.90585 2.2968 1.90204 2.31382 1.90208H16.3206C16.355 1.90208 16.388 1.91751 16.412 1.94543C16.4242 1.95894 16.4338 1.97506 16.4404 1.99285C16.447 2.01064 16.4503 2.02973 16.4503 2.04902Z" fill="black" fill-opacity="0.2"/>
<path fill-rule="evenodd" clip-rule="evenodd" d="M12.3215 5.42126C11.295 4.83939 10.0065 4.1091 9.04421 3.56543C8.79969 3.42713 8.52804 3.3619 8.25503 3.37592C7.98201 3.38994 7.71669 3.48274 7.48421 3.64553C7.25174 3.80831 7.05982 4.03569 6.92666 4.30609C6.79351 4.57648 6.72353 4.88094 6.72336 5.19057V8.90224C6.72347 9.21198 6.79344 9.51654 6.92663 9.78703C7.05982 10.0575 7.25181 10.285 7.48438 10.4478C7.71695 10.6106 7.98238 10.7034 8.25549 10.7173C8.52859 10.7312 8.80031 10.6658 9.04485 10.5274C10.0072 9.98371 11.295 9.25342 12.3222 8.67155C12.5884 8.52047 12.8122 8.28844 12.9687 8.00142C13.1251 7.71441 13.208 7.38373 13.208 7.04641C13.208 6.70908 13.1251 6.3784 12.9687 6.09139C12.8122 5.80437 12.5884 5.57234 12.3222 5.42126H12.3215ZM8.46448 4.87833L11.7418 6.73563C11.7929 6.76431 11.836 6.8086 11.8661 6.86351C11.8961 6.91843 11.9121 6.98177 11.9121 7.04641C11.9121 7.11104 11.8961 7.17439 11.8661 7.2293C11.836 7.28421 11.7929 7.32851 11.7418 7.35718L8.46448 9.21449C8.41762 9.24073 8.36562 9.25299 8.31341 9.25012C8.26119 9.24725 8.21049 9.22934 8.16608 9.19808C8.12168 9.16682 8.08505 9.12325 8.05965 9.07148C8.03425 9.01972 8.02093 8.96147 8.02093 8.90224V5.19057C8.02093 5.13134 8.03425 5.07309 8.05965 5.02133C8.08505 4.96956 8.12168 4.92599 8.16608 4.89473C8.21049 4.86348 8.26119 4.84556 8.31341 4.84269C8.36562 4.83982 8.41762 4.85209 8.46448 4.87833ZM10.6141 15.8613H1.53567C1.36369 15.8613 1.19875 15.9387 1.07714 16.0764C0.955527 16.2142 0.887207 16.4011 0.887207 16.5959C0.887207 16.7908 0.955527 16.9777 1.07714 17.1155C1.19875 17.2532 1.36369 17.3306 1.53567 17.3306H10.6141V17.698C10.6141 17.8928 10.6825 18.0797 10.8041 18.2175C10.9257 18.3553 11.0906 18.4327 11.2626 18.4327C11.4346 18.4327 11.5995 18.3553 11.7211 18.2175C11.8427 18.0797 11.9111 17.8928 11.9111 17.698V17.3306H17.0987C17.2707 17.3306 17.4357 17.2532 17.5573 17.1155C17.6789 16.9777 17.7472 16.7908 17.7472 16.5959C17.7472 16.4011 17.6789 16.2142 17.5573 16.0764C17.4357 15.9387 17.2707 15.8613 17.0987 15.8613H11.9111V15.4939C11.9111 15.2991 11.8427 15.1122 11.7211 14.9744C11.5995 14.8366 11.4346 14.7592 11.2626 14.7592C11.0906 14.7592 10.9257 14.8366 10.8041 14.9744C10.6825 15.1122 10.6141 15.2991 10.6141 15.4939V15.8613Z" fill="#335F32"/>
<path fill-rule="evenodd" clip-rule="evenodd" d="M12.3215 5.42126C11.295 4.83939 10.0065 4.1091 9.04421 3.56543C8.79969 3.42713 8.52804 3.3619 8.25503 3.37592C7.98201 3.38994 7.71669 3.48274 7.48421 3.64553C7.25174 3.80831 7.05982 4.03569 6.92666 4.30609C6.79351 4.57648 6.72353 4.88094 6.72336 5.19057V8.90224C6.72347 9.21198 6.79344 9.51654 6.92663 9.78703C7.05982 10.0575 7.25181 10.285 7.48438 10.4478C7.71695 10.6106 7.98238 10.7034 8.25549 10.7173C8.52859 10.7312 8.80031 10.6658 9.04485 10.5274C10.0072 9.98371 11.295 9.25342 12.3222 8.67155C12.5884 8.52047 12.8122 8.28844 12.9687 8.00142C13.1251 7.71441 13.208 7.38373 13.208 7.04641C13.208 6.70908 13.1251 6.3784 12.9687 6.09139C12.8122 5.80437 12.5884 5.57234 12.3222 5.42126H12.3215ZM8.46448 4.87833L11.7418 6.73563C11.7929 6.76431 11.836 6.8086 11.8661 6.86351C11.8961 6.91843 11.9121 6.98177 11.9121 7.04641C11.9121 7.11104 11.8961 7.17439 11.8661 7.2293C11.836 7.28421 11.7929 7.32851 11.7418 7.35718L8.46448 9.21449C8.41762 9.24073 8.36562 9.25299 8.31341 9.25012C8.26119 9.24725 8.21049 9.22934 8.16608 9.19808C8.12168 9.16682 8.08505 9.12325 8.05965 9.07148C8.03425 9.01972 8.02093 8.96147 8.02093 8.90224V5.19057C8.02093 5.13134 8.03425 5.07309 8.05965 5.02133C8.08505 4.96956 8.12168 4.92599 8.16608 4.89473C8.21049 4.86348 8.26119 4.84556 8.31341 4.84269C8.36562 4.83982 8.41762 4.85209 8.46448 4.87833ZM10.6141 15.8613H1.53567C1.36369 15.8613 1.19875 15.9387 1.07714 16.0764C0.955527 16.2142 0.887207 16.4011 0.887207 16.5959C0.887207 16.7908 0.955527 16.9777 1.07714 17.1155C1.19875 17.2532 1.36369 17.3306 1.53567 17.3306H10.6141V17.698C10.6141 17.8928 10.6825 18.0797 10.8041 18.2175C10.9257 18.3553 11.0906 18.4327 11.2626 18.4327C11.4346 18.4327 11.5995 18.3553 11.7211 18.2175C11.8427 18.0797 11.9111 17.8928 11.9111 17.698V17.3306H17.0987C17.2707 17.3306 17.4357 17.2532 17.5573 17.1155C17.6789 16.9777 17.7472 16.7908 17.7472 16.5959C17.7472 16.4011 17.6789 16.2142 17.5573 16.0764C17.4357 15.9387 17.2707 15.8613 17.0987 15.8613H11.9111V15.4939C11.9111 15.2991 11.8427 15.1122 11.7211 14.9744C11.5995 14.8366 11.4346 14.7592 11.2626 14.7592C11.0906 14.7592 10.9257 14.8366 10.8041 14.9744C10.6825 15.1122 10.6141 15.2991 10.6141 15.4939V15.8613Z" fill="black" fill-opacity="0.2"/>
</svg>
